<svg width="13" height="13" viewBox="0 0 13 13" fill="none" xmlns="http://www.w3.org/2000/svg">
<path d="M11.9898 5.89007L9.54938 8.3296C8.20239 9.67741 6.01726 9.67741 4.67027 8.3296C4.45799 8.11816 4.29205 7.87976 4.1463 7.63378L5.28016 6.49992C5.33407 6.44558 5.40063 6.41442 5.46422 6.37778C5.54256 6.64567 5.67944 6.89922 5.89005 7.10981C6.56269 7.78288 7.65739 7.78204 8.3296 7.10981L10.7692 4.67027C11.4422 3.9972 11.4422 2.90294 10.7692 2.2303C10.0969 1.55766 9.00268 1.55766 8.3296 2.2303L7.46193 3.0988C6.75813 2.82461 5.99955 2.75091 5.26118 2.85914L7.1098 1.01053C8.45762 -0.336845 10.6419 -0.336845 11.9897 1.01053C13.3368 2.35797 13.3367 4.54269 11.9898 5.89007ZM5.53835 9.9015L4.67027 10.77C3.99763 11.4422 2.90293 11.4422 2.23029 10.77C1.55765 10.0969 1.55765 9.00267 2.23029 8.32963L4.67027 5.89009C5.34335 5.21702 6.43718 5.21702 7.10983 5.89009C7.32 6.10027 7.45689 6.35382 7.53609 6.62128C7.60011 6.58421 7.66583 6.55389 7.71974 6.49998L8.85361 5.36655C8.70872 5.11974 8.54191 4.88217 8.32963 4.67032C6.98265 3.32295 4.79751 3.32295 3.45009 4.67032L1.01054 7.10986C-0.336847 8.45767 -0.336847 10.642 1.01054 11.9898C2.35793 13.3367 4.54266 13.3367 5.89008 11.9898L7.73912 10.1407C7.00033 10.2494 6.24175 10.1753 5.53835 9.9015Z" fill="white" fill-opacity="0.6"/>
</svg>
